<svg width="70" height="70" viewBox="0 0 70 70" fill="none" xmlns="http://www.w3.org/2000/svg">
<g clip-path="url(#clip0_43_199)">
<path d="M51.6337 27.4534C51.4132 28.0479 51.1703 28.6328 50.9753 29.2369C50.1986 31.6342 49.9333 34.0634 50.2369 36.5917C50.7835 41.1689 53.1296 44.6881 56.3995 47.7438C58.1223 49.3547 59.7493 51.068 61.4114 52.7397C62.5237 53.8584 63.1214 55.2456 63.0607 56.7958C62.9232 60.3374 60.005 62.7538 56.5593 62.2712C55.3032 62.0954 54.2547 61.5232 53.3598 60.6283C51.1511 58.41 48.9136 56.2173 46.7242 53.9831C44.8639 52.0812 43.6141 49.8182 42.8821 47.2547C42.1278 44.6146 42.0447 41.952 42.6648 39.2958C43.4032 36.141 44.9374 33.4018 47.3059 31.1611C48.5013 30.0296 49.7319 28.9333 50.9497 27.8241C51.1319 27.6579 51.3333 27.5205 51.5283 27.3671C51.5634 27.399 51.5986 27.4246 51.6337 27.4534Z" fill="white"/>
<path d="M61.9164 10.9027C60.7337 7.06707 55.8848 5.74059 52.9474 8.49584C51.1606 10.1707 49.4602 11.9351 47.7342 13.6739C46.2255 15.1954 44.6976 16.6817 42.7862 17.7109C40.6447 18.8616 38.3817 19.552 35.9428 19.6831C33.9004 19.7949 31.9059 19.6063 29.9657 18.9575C29.0995 18.6666 28.2556 18.3118 27.399 17.9826L27.3191 18.0753C28.5689 19.4274 29.8059 20.7954 31.0716 22.1315C34.888 26.1653 39.5387 27.9904 45.0908 27.3255C48.2871 26.942 51.1447 25.7114 53.494 23.5123C55.936 21.2301 58.3109 18.8712 60.6154 16.4515C62.089 14.9077 62.5652 13.0059 61.9164 10.9027ZM35.6999 16.4739C40.5104 16.1063 43.531 12.0726 43.2625 7.86935C43.0835 3.1867 38.973 -0.175856 34.578 0.127797C29.8218 0.457021 26.4721 4.54835 26.9483 9.10634C27.4438 13.7794 31.3305 16.8063 35.6999 16.4739Z" fill="white"/>
<path d="M43.173 50.5693C41.3702 50.0163 39.7081 49.3451 37.9789 49.0287C36.6365 48.7826 35.2077 48.8752 33.8333 48.9967C31.9218 49.1629 30.0999 49.7287 28.3611 50.5789C26.3123 51.5858 24.631 53.0401 23.052 54.6574C21.2908 56.4634 19.4976 58.2374 17.7045 60.0145C14.8534 62.8401 9.60176 61.7501 8.50861 57.4958C7.9972 55.5077 8.45108 53.7209 9.81592 52.2953C12.2579 49.7447 14.7703 47.2515 17.3657 44.8542C19.3954 42.9812 21.8917 41.9392 24.6214 41.4629C28.62 40.7629 32.3693 41.4374 35.8278 43.5469C36.8027 44.1415 37.7104 44.8894 38.5255 45.6917C40.1173 47.2611 41.6196 48.9296 43.173 50.5693Z" fill="white"/>
<path d="M35.3963 53.2606C39.9671 53.1839 43.7707 56.9364 43.7164 61.6415C43.662 66.2442 40.0502 69.8912 35.3579 69.8944C30.7808 69.9008 27.0666 66.1963 27.0506 61.5424C27.0378 57.0004 30.8798 53.1136 35.3963 53.2606Z" fill="white"/>
<path d="M70.099 34.7442C70.1758 39.2191 66.5 43.0771 61.7694 43.0579C57.1634 43.0387 53.4685 39.3565 53.4653 34.7602C53.4621 30.1574 57.1474 26.4401 61.7853 26.4177C66.3593 26.3953 70.1917 30.1862 70.099 34.7442Z" fill="white"/>
<path d="M18.8424 42.1661C19.3954 40.3634 20.0666 38.7013 20.3831 36.972C20.6292 35.6296 20.5365 34.2008 20.415 32.8264C20.2488 30.915 19.6831 29.0899 18.8328 27.3542C17.826 25.3054 16.3716 23.6241 14.7575 22.0451C12.9516 20.2839 11.1776 18.4908 9.40042 16.6976C6.57485 13.8465 7.6648 8.59487 11.9191 7.50172C13.9073 6.9903 15.694 7.44418 17.1196 8.80902C19.6703 11.251 22.1634 13.7634 24.5607 16.3588C26.4337 18.3885 27.4758 20.8848 27.952 23.6145C28.652 27.6131 27.9776 31.3625 25.868 34.8209C25.2735 35.7958 24.5255 36.7036 23.7232 37.5186C22.1474 39.1072 20.4821 40.6127 18.8424 42.1661Z" fill="white"/>
<path d="M16.8351 35.0638C16.9118 39.6346 13.1593 43.4383 8.45429 43.3839C3.85155 43.3296 0.204518 39.7177 0.201321 35.0255C0.194929 30.4483 3.90269 26.7342 8.55337 26.7182C13.0954 26.7054 16.9821 30.5474 16.8351 35.0638Z" fill="white"/>
</g>
<defs>
<clipPath id="clip0_43_199">
<rect width="70" height="70" fill="white"/>
</clipPath>
</defs>
</svg>
