<svg width="22" height="22" viewBox="0 0 22 22" fill="none" xmlns="http://www.w3.org/2000/svg">
<path d="M15.1892 20.1666C15.4326 20.168 15.6739 20.1209 15.899 20.028C16.1241 19.9351 16.3284 19.7984 16.5 19.6257L18.9842 17.1416C19.1549 16.9698 19.2507 16.7375 19.2507 16.4953C19.2507 16.2531 19.1549 16.0208 18.9842 15.8491L15.3175 12.1824C15.1457 12.0117 14.9134 11.9158 14.6712 11.9158C14.4291 11.9158 14.1967 12.0117 14.025 12.1824L12.5583 13.6399C11.5429 13.3691 10.6025 12.8707 9.80833 12.1824C9.12186 11.387 8.62366 10.447 8.35083 9.43238L9.80833 7.96572C9.97906 7.79397 10.0749 7.56164 10.0749 7.31947C10.0749 7.0773 9.97906 6.84497 9.80833 6.67322L6.14166 3.00655C5.96991 2.83582 5.73758 2.73999 5.49541 2.73999C5.25324 2.73999 5.02091 2.83582 4.84916 3.00655L2.37416 5.49989C2.20149 5.67152 2.06474 5.87583 1.97188 6.1009C1.87902 6.32596 1.83192 6.56726 1.83333 6.81072C1.91649 10.3328 3.3239 13.6942 5.775 16.2249C8.30566 18.676 11.6671 20.0834 15.1892 20.1666ZM5.5 4.95905L7.87416 7.33322L6.69166 8.51572C6.57967 8.62063 6.4958 8.75198 6.44775 8.89772C6.3997 9.04346 6.38901 9.19894 6.41666 9.34988C6.75929 10.8811 7.48468 12.3003 8.525 13.4749C9.69866 14.5165 11.1183 15.2421 12.65 15.5832C12.7987 15.6143 12.9527 15.608 13.0983 15.5647C13.2439 15.5215 13.3765 15.4428 13.4842 15.3357L14.6667 14.1257L17.0408 16.4999L15.2075 18.3332C12.1676 18.2549 9.26704 17.0418 7.07666 14.9324C4.96183 12.7411 3.74514 9.83673 3.66666 6.79239L5.5 4.95905ZM18.3333 10.0832H20.1667C20.1904 8.9933 19.9933 7.90985 19.5871 6.89817C19.1809 5.88649 18.5741 4.96753 17.8032 4.19666C17.0324 3.42578 16.1134 2.81897 15.1017 2.41278C14.09 2.0066 13.0066 1.80945 11.9167 1.83322V3.66655C12.7672 3.63713 13.6148 3.78298 14.4066 4.09503C15.1984 4.40709 15.9176 4.87868 16.5194 5.48049C17.1212 6.0823 17.5928 6.80147 17.9049 7.59328C18.2169 8.3851 18.3628 9.23264 18.3333 10.0832Z" fill="#7192A3"/>
<path d="M11.9167 7.33333C13.8417 7.33333 14.6667 8.15833 14.6667 10.0833H16.5C16.5 7.13167 14.8683 5.5 11.9167 5.5V7.33333Z" fill="#7192A3"/>
</svg>
