<svg width="22" height="22" viewBox="0 0 22 22" fill="none" xmlns="http://www.w3.org/2000/svg">
<path d="M17.9232 2.74725C17.7025 2.76331 17.4858 2.81508 17.2817 2.90056H17.279C17.083 2.97825 16.1515 3.37012 14.7352 3.96412L9.6601 6.10156C6.01841 7.63469 2.4386 9.14444 2.4386 9.14444L2.48122 9.12794C2.48122 9.12794 2.23441 9.20906 1.9766 9.38575C1.81732 9.4871 1.68027 9.61971 1.57372 9.77556C1.44722 9.96119 1.34547 10.2451 1.38328 10.5387C1.44516 11.0351 1.76691 11.3327 1.99791 11.4971C2.23166 11.6634 2.45441 11.7411 2.45441 11.7411H2.45991L5.81697 12.8721C5.96753 13.3554 6.83997 16.2236 7.04966 16.8843C7.17341 17.2789 7.29372 17.5258 7.44428 17.7141C7.51716 17.8104 7.60241 17.8908 7.70485 17.9554C7.7581 17.9864 7.81488 18.0109 7.87397 18.0283L7.8396 18.0201C7.84991 18.0228 7.85816 18.0311 7.86572 18.0338C7.89322 18.0414 7.91178 18.0441 7.94685 18.0496C8.47828 18.2105 8.90522 17.8805 8.90522 17.8805L8.92928 17.8612L10.9113 16.0566L14.2333 18.6051L14.309 18.6374C15.0013 18.9413 15.7025 18.7722 16.0731 18.4738C16.4464 18.1734 16.5915 17.7891 16.5915 17.7891L16.6155 17.7272L19.1827 4.576C19.2555 4.2515 19.2741 3.94762 19.1937 3.65269C19.1107 3.35419 18.9192 3.09747 18.6567 2.93287C18.4363 2.79889 18.1808 2.73422 17.9232 2.74725ZM17.8537 4.15662C17.851 4.19994 17.8592 4.19512 17.84 4.27831V4.28587L15.2969 17.3002C15.2859 17.3188 15.2673 17.3594 15.2165 17.3999C15.1628 17.4426 15.1202 17.4694 14.8968 17.3807L10.8337 14.2656L8.37928 16.5027L8.89491 13.2096L15.5334 7.02212C15.807 6.76775 15.7156 6.71412 15.7156 6.71412C15.7348 6.402 15.3024 6.62269 15.3024 6.62269L6.93141 11.8085L6.92866 11.7947L2.91641 10.4438V10.4411L2.9061 10.439C2.91313 10.4367 2.92002 10.4339 2.92672 10.4307L2.94872 10.4197L2.97003 10.4122C2.97003 10.4122 6.5526 8.90244 10.1943 7.36931C12.0175 6.60137 13.8545 5.82794 15.2673 5.23119C16.6802 4.63787 17.7245 4.20269 17.7836 4.17931C17.84 4.15731 17.8132 4.15731 17.8537 4.15731V4.15662Z" fill="#7192A3"/>
</svg>
