<svg width="22" height="22" viewBox="0 0 22 22" fill="none" xmlns="http://www.w3.org/2000/svg">
<path d="M20.6616 5.88508C20.5527 5.45004 20.331 5.05144 20.0187 4.72954C19.7065 4.40764 19.3148 4.17383 18.8833 4.05175C17.3066 3.66675 10.9999 3.66675 10.9999 3.66675C10.9999 3.66675 4.69328 3.66675 3.11662 4.08841C2.68509 4.2105 2.29343 4.4443 1.98118 4.7662C1.66894 5.08811 1.44717 5.48671 1.33828 5.92175C1.04973 7.52184 0.908582 9.14503 0.916616 10.7709C0.90633 12.409 1.04749 14.0446 1.33828 15.6567C1.45833 16.0783 1.68506 16.4617 1.99658 16.77C2.3081 17.0783 2.69387 17.3011 3.11662 17.4167C4.69328 17.8384 10.9999 17.8384 10.9999 17.8384C10.9999 17.8384 17.3066 17.8384 18.8833 17.4167C19.3148 17.2947 19.7065 17.0609 20.0187 16.739C20.331 16.4171 20.5527 16.0185 20.6616 15.5834C20.9479 13.9954 21.0891 12.3846 21.0833 10.7709C21.0936 9.13279 20.9524 7.49722 20.6616 5.88508V5.88508Z" stroke="#7192A3" stroke-width="1.4" stroke-linecap="round" stroke-linejoin="round"/>
<path d="M8.9375 13.7684L14.2083 10.7709L8.9375 7.77344V13.7684Z" stroke="#7192A3" stroke-width="1.4" stroke-linecap="round" stroke-linejoin="round"/>
</svg>
