<svg width="50" height="50" viewBox="0 0 50 50" fill="none" xmlns="http://www.w3.org/2000/svg">
<g clip-path="url(#clip0_11_296)">
<path d="M36.8812 19.6096C36.7237 20.0343 36.5502 20.4521 36.4109 20.8836C35.8561 22.5959 35.6666 24.3311 35.8835 26.137C36.2739 29.4064 37.9497 31.9201 40.2854 34.1028C41.5159 35.2535 42.678 36.4772 43.8653 37.6713C44.6598 38.4704 45.0867 39.4612 45.0433 40.5685C44.9452 43.0982 42.8607 44.8242 40.3995 44.4795C39.5022 44.3539 38.7534 43.9452 38.1141 43.306C36.5365 41.7215 34.9383 40.1553 33.3744 38.5594C32.0456 37.2009 31.1529 35.5845 30.6301 33.7535C30.0913 31.8676 30.0319 29.9658 30.4749 28.0685C31.0022 25.8151 32.0981 23.8585 33.7899 22.258C34.6438 21.4498 35.5228 20.6667 36.3927 19.8745C36.5228 19.7557 36.6666 19.6576 36.8059 19.548C36.831 19.5708 36.8561 19.5891 36.8812 19.6096Z" fill="white"/>
<path d="M44.226 7.7877C43.3812 5.04798 39.9177 4.10049 37.8196 6.06853C36.5433 7.26487 35.3287 8.52515 34.0958 9.76716C33.0182 10.8539 31.9269 11.9156 30.5616 12.6507C29.0319 13.4726 27.4155 13.9658 25.6735 14.0594C24.2146 14.1393 22.7899 14.0046 21.4041 13.5411C20.7853 13.3334 20.1826 13.0799 19.5707 12.8448L19.5136 12.911C20.4063 13.8767 21.2899 14.8539 22.194 15.8083C24.92 18.6895 28.242 19.9932 32.2077 19.5183C34.4908 19.2443 36.5319 18.3653 38.21 16.7946C39.9543 15.1644 41.6506 13.4795 43.2967 11.7512C44.3493 10.6484 44.6894 9.28999 44.226 7.7877ZM25.4999 11.7672C28.936 11.5046 31.0936 8.62332 30.9018 5.62104C30.7739 2.27629 27.8378 -0.125542 24.6986 0.0913534C21.3013 0.326513 18.9086 3.24889 19.2488 6.5046C19.6027 9.8425 22.3789 12.0046 25.4999 11.7672Z" fill="white"/>
<path d="M30.8378 36.121C29.5502 35.726 28.363 35.2466 27.1278 35.0205C26.1689 34.8447 25.1484 34.9109 24.1666 34.9977C22.8013 35.1164 21.5 35.5205 20.2579 36.1278C18.7945 36.847 17.5936 37.8858 16.4657 39.0411C15.2077 40.331 13.9269 41.5982 12.6461 42.8676C10.6095 44.8858 6.8584 44.1073 6.07758 41.0685C5.71229 39.6484 6.03649 38.3721 7.01137 37.3539C8.75567 35.5319 10.5502 33.7511 12.4041 32.0388C13.8538 30.7009 15.6369 29.9566 17.5867 29.6164C20.4429 29.1164 23.121 29.5982 25.5913 31.105C26.2876 31.5297 26.936 32.0639 27.5182 32.637C28.6552 33.758 29.7283 34.9498 30.8378 36.121Z" fill="white"/>
<path d="M25.283 38.0434C28.5479 37.9886 31.2648 40.669 31.226 44.0297C31.1872 47.3174 28.6073 49.9224 25.2557 49.9247C21.9862 49.9293 19.3333 47.2831 19.3219 43.9589C19.3127 40.7146 22.057 37.9384 25.283 38.0434Z" fill="white"/>
<path d="M50.0707 24.8174C50.1255 28.0138 47.5 30.7695 44.121 30.7558C40.831 30.7421 38.1917 28.112 38.1895 24.8288C38.1872 21.5412 40.8196 18.8859 44.1324 18.8699C47.3995 18.854 50.1369 21.5617 50.0707 24.8174Z" fill="white"/>
<path d="M13.4589 30.1188C13.8539 28.8311 14.3333 27.6439 14.5593 26.4088C14.7351 25.4499 14.6689 24.4293 14.5822 23.4476C14.4634 22.0823 14.0593 20.7786 13.452 19.5389C12.7328 18.0754 11.694 16.8745 10.5411 15.7467C9.25111 14.4887 7.98399 13.2078 6.71459 11.927C4.69632 9.89049 5.47486 6.13935 8.51367 5.35853C9.93376 4.99323 11.21 5.31743 12.2283 6.29232C14.0502 8.03661 15.831 9.83113 17.5433 11.685C18.8812 13.1348 19.6255 14.9179 19.9657 16.8677C20.4657 19.7238 19.984 22.4019 18.4771 24.8722C18.0525 25.5686 17.5182 26.217 16.9452 26.7992C15.8196 27.9339 14.6301 29.0092 13.4589 30.1188Z" fill="white"/>
<path d="M12.0251 25.0457C12.0799 28.3105 9.39951 31.0274 6.03878 30.9886C2.75111 30.9498 0.146088 28.3699 0.143805 25.0183C0.139239 21.7489 2.78764 19.0959 6.10956 19.0845C9.35385 19.0754 12.1301 21.8197 12.0251 25.0457Z" fill="white"/>
</g>
<defs>
<clipPath id="clip0_11_296">
<rect width="50" height="50" fill="white"/>
</clipPath>
</defs>
</svg>
